<svg width="704" height="223" viewBox="0 0 704 223" fill="none" xmlns="http://www.w3.org/2000/svg">
<path d="M44.268 31.124L44.764 34.348L7.43999 83.948L8.43199 80.476H47.492C50.8813 80.476 53.0307 80.0627 53.94 79.236C54.8493 78.3267 55.4693 76.7973 55.8 74.648H58.156C58.156 79.36 58.1973 82.9974 58.28 85.56C58.3627 88.04 58.4867 90.3134 58.652 92.38C58.0733 92.2147 57.04 92.132 55.552 92.132C54.064 92.0494 52.328 91.9667 50.344 91.884C48.36 91.8014 46.2933 91.76 44.144 91.76C42.0773 91.76 40.0933 91.76 38.192 91.76H-1.35638e-05V89.156L44.268 31.124ZM46.252 31.124V114.452H33.356V47.244L44.268 31.124H46.252ZM102.253 31.124C108.619 31.124 114.24 32.488 119.117 35.216C123.995 37.944 127.797 41.7467 130.525 46.624C133.336 51.5013 134.741 57.2467 134.741 63.86C134.741 70.4733 133.295 76.4254 130.401 81.716C127.591 87.0067 123.664 91.1814 118.621 94.24C113.579 97.216 107.668 98.704 100.889 98.704C94.6895 98.704 89.1095 97.3814 84.1495 94.736C79.2722 92.008 75.4282 88.164 72.6175 83.204C69.8068 78.244 68.4015 72.4573 68.4015 65.844C68.4015 59.3133 69.8068 53.444 72.6175 48.236C75.4282 43.028 79.3548 38.8947 84.3975 35.836C89.5228 32.6947 95.4748 31.124 102.253 31.124ZM101.137 33.356C96.4255 33.356 92.5402 36.208 89.4815 41.912C86.4228 47.5333 84.8935 55.3867 84.8935 65.472C84.8935 72.912 85.6788 78.9054 87.2495 83.452C88.8202 87.9987 90.9282 91.3054 93.5735 93.372C96.2188 95.4387 99.0295 96.472 102.005 96.472C106.8 96.472 110.685 93.62 113.661 87.916C116.72 82.212 118.249 74.3174 118.249 64.232C118.249 56.792 117.464 50.84 115.893 46.376C114.323 41.8293 112.256 38.5227 109.693 36.456C107.131 34.3893 104.279 33.356 101.137 33.356ZM241.256 9.17602V11.656C239.602 12.152 237.866 13.4333 236.048 15.5C234.229 17.484 232.245 20.584 230.096 24.8L206.164 72.292H201.576L172.56 18.724C170.989 15.8307 169.625 13.9707 168.468 13.144C167.31 12.2347 166.277 11.78 165.368 11.78V9.17602C167.352 9.25868 169.418 9.38268 171.568 9.54801C173.8 9.63068 176.197 9.67201 178.76 9.67201C182.066 9.67201 185.621 9.63068 189.424 9.54801C193.226 9.46535 196.781 9.34135 200.088 9.17602V11.78C198.021 11.78 196.161 11.9453 194.508 12.276C192.854 12.6067 191.738 13.3093 191.16 14.384C190.581 15.4587 190.788 17.0293 191.78 19.096L211.868 57.536L208.892 61.008L223.028 32.984C225.756 27.528 227.161 23.2707 227.244 20.212C227.409 17.1533 226.541 15.004 224.64 13.764C222.821 12.4413 220.217 11.7387 216.828 11.656V9.17602C219.556 9.25868 222.118 9.34135 224.516 9.42401C226.996 9.50668 229.434 9.54801 231.832 9.54801C233.816 9.54801 235.552 9.50668 237.04 9.42401C238.61 9.34135 240.016 9.25868 241.256 9.17602ZM213.728 54.808V83.824C213.728 86.8 213.976 89.032 214.472 90.52C214.968 92.008 215.877 93 217.2 93.496C218.605 93.992 220.63 94.3227 223.276 94.488V96.968C221.209 96.8027 218.522 96.72 215.216 96.72C211.909 96.6374 208.602 96.596 205.296 96.596C201.741 96.596 198.31 96.6374 195.004 96.72C191.78 96.72 189.176 96.8027 187.192 96.968V94.488C189.92 94.3227 191.945 93.992 193.268 93.496C194.673 93 195.582 92.008 195.996 90.52C196.492 89.032 196.74 86.8 196.74 83.824V58.404L206.164 66.092L213.728 54.808ZM311.229 9.17602C310.899 12.5653 310.651 15.872 310.485 19.096C310.403 22.2373 310.361 24.6347 310.361 26.288C310.361 27.8587 310.403 29.388 310.485 30.876C310.568 32.2813 310.651 33.48 310.733 34.472H307.881C307.22 28.768 306.145 24.304 304.657 21.08C303.169 17.7733 301.144 15.4587 298.581 14.136C296.101 12.7307 292.836 12.028 288.785 12.028H281.965C279.485 12.028 277.584 12.2347 276.261 12.648C274.939 13.0613 274.029 13.9293 273.533 15.252C273.12 16.5747 272.913 18.6 272.913 21.328V84.816C272.913 87.4614 273.12 89.4867 273.533 90.892C274.029 92.2147 274.939 93.0827 276.261 93.496C277.584 93.9094 279.485 94.116 281.965 94.116H289.033C293.249 94.116 296.763 93.3307 299.573 91.76C302.467 90.1894 304.781 87.6267 306.517 84.072C308.253 80.4347 309.535 75.4747 310.361 69.192H313.213C312.965 71.7547 312.841 75.0614 312.841 79.112C312.841 80.848 312.883 83.3694 312.965 86.676C313.131 89.9827 313.379 93.4134 313.709 96.968C309.493 96.8027 304.74 96.72 299.449 96.72C294.159 96.6374 289.447 96.596 285.313 96.596C283.412 96.596 280.891 96.596 277.749 96.596C274.691 96.596 271.343 96.6374 267.705 96.72C264.151 96.72 260.513 96.7614 256.793 96.844C253.156 96.844 249.684 96.8854 246.377 96.968V94.488C249.105 94.3227 251.131 93.992 252.453 93.496C253.859 93 254.768 92.008 255.181 90.52C255.677 89.032 255.925 86.8 255.925 83.824V22.32C255.925 19.2613 255.677 17.0293 255.181 15.624C254.768 14.136 253.859 13.144 252.453 12.648C251.131 12.0693 249.105 11.7387 246.377 11.656V9.17602C249.684 9.25868 253.156 9.34135 256.793 9.42401C260.513 9.42401 264.151 9.46535 267.705 9.54801C271.343 9.54801 274.691 9.54801 277.749 9.54801C280.891 9.54801 283.412 9.54801 285.313 9.54801C289.116 9.54801 293.415 9.54801 298.209 9.54801C303.087 9.46535 307.427 9.34135 311.229 9.17602ZM291.265 51.584C291.265 51.584 291.265 51.9973 291.265 52.824C291.265 53.6507 291.265 54.064 291.265 54.064H269.193C269.193 54.064 269.193 53.6507 269.193 52.824C269.193 51.9973 269.193 51.584 269.193 51.584H291.265ZM294.861 35.216C294.531 39.928 294.365 43.524 294.365 46.004C294.448 48.484 294.489 50.7573 294.489 52.824C294.489 54.8907 294.531 57.164 294.613 59.644C294.696 62.124 294.903 65.72 295.233 70.432H292.381C291.968 67.6213 291.307 64.976 290.397 62.496C289.571 59.9333 288.207 57.908 286.305 56.42C284.487 54.8493 281.841 54.064 278.369 54.064V51.584C280.932 51.584 282.999 51.0467 284.569 49.972C286.223 48.8973 287.545 47.5333 288.537 45.88C289.529 44.144 290.273 42.3667 290.769 40.548C291.348 38.6467 291.761 36.8693 292.009 35.216H294.861ZM363.185 8.80401L393.317 86.552C394.557 89.528 395.88 91.5947 397.285 92.752C398.773 93.8267 400.137 94.4054 401.377 94.488V96.968C399.228 96.8027 396.624 96.72 393.565 96.72C390.589 96.6374 387.531 96.596 384.389 96.596C380.752 96.596 377.363 96.6374 374.221 96.72C371.08 96.72 368.517 96.8027 366.533 96.968V94.488C370.749 94.3227 373.436 93.62 374.593 92.38C375.751 91.0574 375.503 88.288 373.849 84.072L352.025 25.172L354.257 22.444L334.417 73.904C332.847 78.0374 331.896 81.4267 331.565 84.072C331.235 86.7174 331.441 88.784 332.185 90.272C332.929 91.76 334.169 92.8347 335.905 93.496C337.641 94.0747 339.791 94.4054 342.353 94.488V96.968C339.708 96.8027 337.145 96.72 334.665 96.72C332.185 96.6374 329.705 96.596 327.225 96.596C325.407 96.596 323.671 96.6374 322.017 96.72C320.447 96.72 319.041 96.8027 317.801 96.968V94.488C319.62 94.0747 321.397 93 323.133 91.264C324.952 89.528 326.688 86.5107 328.341 82.212L356.737 8.80401C357.729 8.88668 358.804 8.92801 359.961 8.92801C361.119 8.92801 362.193 8.88668 363.185 8.80401ZM373.973 61.256V63.736H337.021L338.261 61.256H373.973ZM402.709 9.17602C404.776 9.25868 407.421 9.34135 410.645 9.42401C413.869 9.50668 417.093 9.54801 420.317 9.54801C424.368 9.54801 428.212 9.50668 431.849 9.42401C435.487 9.34135 438.049 9.30002 439.537 9.30002C446.977 9.30002 453.095 10.2093 457.889 12.028C462.767 13.764 466.404 16.244 468.801 19.468C471.199 22.692 472.397 26.4947 472.397 30.876C472.397 33.604 471.86 36.4147 470.785 39.308C469.711 42.1187 467.851 44.7227 465.205 47.12C462.56 49.5173 458.923 51.5013 454.293 53.072C449.747 54.56 443.919 55.304 436.809 55.304H424.905V52.824H435.569C440.777 52.824 444.745 51.9147 447.473 50.096C450.284 48.1947 452.144 45.7147 453.053 42.656C454.045 39.5147 454.541 36.0427 454.541 32.24C454.541 25.7093 453.26 20.6667 450.697 17.112C448.135 13.4747 443.712 11.656 437.429 11.656C434.04 11.656 431.808 12.3587 430.733 13.764C429.741 15.1693 429.245 18.0213 429.245 22.32V83.824C429.245 86.8 429.493 89.032 429.989 90.52C430.485 92.008 431.395 93 432.717 93.496C434.123 93.992 436.148 94.3227 438.793 94.488V96.968C436.727 96.8027 434.081 96.72 430.857 96.72C427.633 96.6374 424.368 96.596 421.061 96.596C417.341 96.596 413.869 96.6374 410.645 96.72C407.421 96.72 404.776 96.8027 402.709 96.968V94.488C405.437 94.3227 407.463 93.992 408.785 93.496C410.191 93 411.1 92.008 411.513 90.52C412.009 89.032 412.257 86.8 412.257 83.824V22.32C412.257 19.2613 412.009 17.0293 411.513 15.624C411.1 14.136 410.191 13.144 408.785 12.648C407.463 12.0693 405.437 11.7387 402.709 11.656V9.17602ZM424.905 53.196C428.791 53.3613 432.015 53.568 434.577 53.816C437.223 53.9813 439.455 54.1467 441.273 54.312C443.175 54.4773 444.869 54.684 446.357 54.932C453.219 55.5933 458.261 57.2053 461.485 59.768C464.792 62.248 466.983 66.0507 468.057 71.176L470.909 83.948C471.653 87.3374 472.439 89.776 473.265 91.264C474.175 92.6694 475.456 93.3307 477.109 93.248C478.267 93.248 479.259 92.9587 480.085 92.38C480.912 91.7187 481.739 90.8507 482.565 89.776L484.301 91.264C482.235 93.8267 480.044 95.728 477.729 96.968C475.415 98.1254 472.48 98.704 468.925 98.704C464.957 98.704 461.609 97.7947 458.881 95.976C456.153 94.0747 454.293 90.52 453.301 85.312L450.945 72.912C450.284 69.44 449.499 66.3813 448.589 63.736C447.763 61.0907 446.605 59.024 445.117 57.536C443.629 56.048 441.439 55.304 438.545 55.304H425.153L424.905 53.196ZM516.139 7.68801C520.769 7.68801 524.323 8.18402 526.803 9.17602C529.283 10.168 531.433 11.2427 533.251 12.4C534.243 12.9787 535.029 13.4333 535.607 13.764C536.269 14.012 536.889 14.136 537.467 14.136C538.294 14.136 538.873 13.6813 539.203 12.772C539.617 11.8627 539.947 10.4987 540.195 8.68002H543.047C542.965 10.2507 542.841 12.0693 542.675 14.136C542.593 16.2027 542.51 18.972 542.427 22.444C542.427 25.8334 542.427 30.3387 542.427 35.96H539.575C539.327 31.744 538.377 27.6933 536.723 23.808C535.153 19.9227 532.879 16.74 529.903 14.26C527.01 11.6973 523.29 10.416 518.743 10.416C514.693 10.416 511.303 11.6147 508.575 14.012C505.93 16.4093 504.607 19.6333 504.607 23.684C504.607 27.156 505.475 30.0907 507.211 32.488C508.947 34.8027 511.386 37.076 514.527 39.308C517.751 41.4573 521.554 43.9373 525.935 46.748C529.986 49.3933 533.623 52.0387 536.847 54.684C540.071 57.2467 542.593 60.0987 544.411 63.24C546.313 66.3813 547.263 70.2253 547.263 74.772C547.263 80.1454 545.941 84.6094 543.295 88.164C540.65 91.7187 537.095 94.364 532.631 96.1C528.167 97.836 523.29 98.704 517.999 98.704C513.122 98.704 509.237 98.208 506.343 97.216C503.533 96.224 501.094 95.1907 499.027 94.116C497.209 92.9587 495.803 92.38 494.811 92.38C493.985 92.38 493.365 92.8347 492.951 93.744C492.621 94.6534 492.331 96.0174 492.083 97.836H489.231C489.397 95.9347 489.479 93.7027 489.479 91.14C489.562 88.5774 489.603 85.2707 489.603 81.22C489.686 77.0867 489.727 71.8787 489.727 65.596H492.579C492.91 70.8867 493.819 75.8467 495.307 80.476C496.878 85.0227 499.234 88.7014 502.375 91.512C505.599 94.3227 509.857 95.728 515.147 95.728C518.041 95.728 520.645 95.232 522.959 94.24C525.357 93.1654 527.258 91.5534 528.663 89.404C530.069 87.172 530.771 84.3613 530.771 80.972C530.771 77.5827 529.986 74.6067 528.415 72.044C526.845 69.4814 524.654 67.084 521.843 64.852C519.033 62.62 515.726 60.3467 511.923 58.032C508.038 55.552 504.401 53.0307 501.011 50.468C497.622 47.9053 494.894 45.012 492.827 41.788C490.843 38.4813 489.851 34.5133 489.851 29.884C489.851 24.7587 491.091 20.584 493.571 17.36C496.051 14.0533 499.275 11.6147 503.243 10.044C507.294 8.47335 511.593 7.68801 516.139 7.68801ZM617.149 31.124C622.853 31.124 627.896 32.2813 632.277 34.596C636.741 36.828 640.254 40.424 642.817 45.384C645.462 50.344 646.785 56.8747 646.785 64.976C646.785 73.0773 645.462 79.608 642.817 84.568C640.254 89.528 636.741 93.124 632.277 95.356C627.896 97.588 622.853 98.704 617.149 98.704C611.445 98.704 606.361 97.588 601.897 95.356C597.433 93.124 593.92 89.528 591.357 84.568C588.794 79.608 587.513 73.0773 587.513 64.976C587.513 56.8747 588.794 50.344 591.357 45.384C593.92 40.424 597.433 36.828 601.897 34.596C606.361 32.2813 611.445 31.124 617.149 31.124ZM617.149 33.604C613.264 33.604 610.081 36.084 607.601 41.044C605.204 45.9213 604.005 53.8987 604.005 64.976C604.005 76.0533 605.204 84.0307 607.601 88.908C610.081 93.7854 613.264 96.224 617.149 96.224C620.952 96.224 624.093 93.7854 626.573 88.908C629.053 84.0307 630.293 76.0533 630.293 64.976C630.293 53.8987 629.053 45.9213 626.573 41.044C624.093 36.084 620.952 33.604 617.149 33.604ZM686.911 9.53674e-06C689.639 9.53674e-06 691.995 0.37201 693.979 1.11601C696.045 1.77734 697.823 2.68668 699.311 3.84401C700.551 4.83601 701.543 6.07602 702.287 7.56402C703.113 9.05202 703.527 10.7053 703.527 12.524C703.527 14.756 702.741 16.6573 701.171 18.228C699.683 19.7987 697.781 20.584 695.467 20.584C692.987 20.584 690.92 19.8813 689.267 18.476C687.696 16.988 686.911 14.9627 686.911 12.4C686.911 10.416 687.448 8.72135 688.523 7.31601C689.68 5.82801 691.292 4.79468 693.359 4.21601C693.111 3.63735 692.573 3.14134 691.747 2.72801C690.92 2.31468 689.804 2.10801 688.399 2.10801C686.745 2.10801 685.299 2.43868 684.059 3.10001C682.901 3.76135 681.951 4.67068 681.207 5.82802C680.38 7.23335 679.801 9.30001 679.471 12.028C679.14 14.756 678.975 18.8893 678.975 24.428V32.984H692.243V35.464H678.975V84.196C678.975 88.2467 680.049 90.9747 682.199 92.38C684.431 93.7027 687.407 94.364 691.127 94.364V96.968C689.06 96.8854 686.167 96.8027 682.447 96.72C678.727 96.5547 674.759 96.472 670.543 96.472C667.567 96.472 664.591 96.5547 661.615 96.72C658.639 96.8027 656.407 96.8854 654.919 96.968V94.364C657.977 94.364 660.127 93.744 661.367 92.504C662.689 91.264 663.351 88.908 663.351 85.436V35.464H654.423V32.984H663.351C663.351 28.1067 663.599 24.056 664.095 20.832C664.591 17.5253 665.335 14.7147 666.327 12.4C667.401 10.0853 668.848 8.01868 670.667 6.20001C672.403 4.38135 674.676 2.89335 677.487 1.73602C680.38 0.578679 683.521 9.53674e-06 686.911 9.53674e-06ZM25.544 155.124C29.016 155.124 31.992 155.62 34.472 156.612C36.952 157.604 38.7707 158.472 39.928 159.216C42.7387 161.283 44.4333 159.96 45.012 155.248H47.74C47.5747 157.645 47.4507 160.497 47.368 163.804C47.2853 167.028 47.244 171.368 47.244 176.824H44.516C44.1027 173.765 43.3173 170.789 42.16 167.896C41.0027 165.003 39.308 162.605 37.076 160.704C34.844 158.72 31.9093 157.728 28.272 157.728C25.7093 157.728 23.56 158.472 21.824 159.96C20.1707 161.448 19.344 163.556 19.344 166.284C19.344 168.764 20.088 170.955 21.576 172.856C23.064 174.675 24.9653 176.411 27.28 178.064C29.6773 179.635 32.1573 181.371 34.72 183.272C37.696 185.256 40.3413 187.281 42.656 189.348C44.9707 191.332 46.8307 193.564 48.236 196.044C49.6413 198.441 50.344 201.293 50.344 204.6C50.344 208.403 49.2693 211.668 47.12 214.396C45.0533 217.041 42.284 219.108 38.812 220.596C35.4227 222.001 31.6613 222.704 27.528 222.704C25.296 222.704 23.2707 222.497 21.452 222.084C19.6333 221.671 18.0213 221.133 16.616 220.472C15.5413 219.893 14.5493 219.356 13.64 218.86C12.8133 218.364 11.9453 217.951 11.036 217.62C10.2093 217.207 9.46532 217.372 8.80399 218.116C8.22532 218.86 7.77065 220.1 7.43999 221.836H4.71199C4.87732 219.191 5.00132 215.967 5.08399 212.164C5.16665 208.361 5.20799 203.319 5.20799 197.036H7.93599C8.51465 201.583 9.38265 205.592 10.54 209.064C11.78 212.453 13.5573 215.14 15.872 217.124C18.1867 219.025 21.1627 219.976 24.8 219.976C26.3707 219.976 27.8587 219.645 29.264 218.984C30.752 218.323 31.9507 217.289 32.86 215.884C33.852 214.479 34.348 212.577 34.348 210.18C34.348 206.543 33.108 203.525 30.628 201.128C28.148 198.731 25.048 196.168 21.328 193.44C18.5173 191.373 15.872 189.348 13.392 187.364C10.9947 185.38 9.01065 183.148 7.43999 180.668C5.95199 178.188 5.20799 175.253 5.20799 171.864C5.20799 168.144 6.15865 165.085 8.05999 162.688C9.96132 160.208 12.4413 158.348 15.5 157.108C18.6413 155.785 21.9893 155.124 25.544 155.124ZM89.7799 155.124C97.0545 155.124 102.759 157.315 106.892 161.696C111.025 166.077 113.092 173.063 113.092 182.652H71.3039L71.1799 180.296H98.7079C98.8732 176.245 98.6252 172.525 97.9639 169.136C97.3025 165.664 96.2279 162.895 94.7399 160.828C93.3345 158.761 91.4745 157.728 89.1599 157.728C86.0185 157.728 83.2905 159.588 80.9759 163.308C78.6612 166.945 77.2145 172.939 76.6359 181.288L77.1319 182.032C76.9665 183.107 76.8425 184.264 76.7599 185.504C76.7599 186.744 76.7599 187.984 76.7599 189.224C76.7599 194.928 77.5865 199.64 79.2399 203.36C80.8932 207.08 83.0425 209.808 85.6879 211.544C88.3332 213.28 91.0612 214.148 93.8719 214.148C95.7732 214.148 97.7159 213.859 99.6999 213.28C101.684 212.701 103.627 211.627 105.528 210.056C107.429 208.485 109.165 206.253 110.736 203.36L113.092 204.352C112.183 207.245 110.653 210.139 108.504 213.032C106.437 215.843 103.751 218.157 100.444 219.976C97.1372 221.795 93.2519 222.704 88.7879 222.704C83.1665 222.704 78.2065 221.464 73.9079 218.984C69.6092 216.504 66.2612 212.825 63.8639 207.948C61.4665 202.988 60.2679 196.953 60.2679 189.844C60.2679 182.321 61.5079 175.997 63.9879 170.872C66.5505 165.747 70.0639 161.861 74.5279 159.216C78.9919 156.488 84.0759 155.124 89.7799 155.124ZM161.821 155.124C164.384 155.124 166.492 155.661 168.145 156.736C169.881 157.811 171.162 159.175 171.989 160.828C172.816 162.481 173.229 164.217 173.229 166.036C173.229 168.764 172.402 171.037 170.749 172.856C169.178 174.675 167.07 175.584 164.425 175.584C161.945 175.584 159.92 174.923 158.349 173.6C156.778 172.277 155.993 170.459 155.993 168.144C155.993 166.077 156.489 164.341 157.481 162.936C158.556 161.531 159.754 160.415 161.077 159.588C160.168 159.092 159.134 158.927 157.977 159.092C155.993 159.257 154.174 159.96 152.521 161.2C150.868 162.44 149.462 163.969 148.305 165.788C147.148 167.607 146.238 169.549 145.577 171.616C144.998 173.683 144.709 175.667 144.709 177.568V208.196C144.709 212.247 145.742 214.975 147.809 216.38C149.876 217.703 152.893 218.364 156.861 218.364V220.968C154.96 220.885 152.19 220.803 148.553 220.72C144.998 220.555 141.278 220.472 137.393 220.472C134.169 220.472 130.945 220.555 127.721 220.72C124.58 220.803 122.224 220.885 120.653 220.968V218.364C123.712 218.364 125.861 217.744 127.101 216.504C128.424 215.264 129.085 212.908 129.085 209.436V170.376C129.085 166.656 128.465 163.928 127.225 162.192C126.068 160.373 123.877 159.464 120.653 159.464V156.86C123.298 157.108 125.861 157.232 128.341 157.232C131.4 157.232 134.293 157.108 137.021 156.86C139.832 156.529 142.394 156.075 144.709 155.496V168.392C145.701 166.077 146.982 163.928 148.553 161.944C150.206 159.96 152.149 158.348 154.381 157.108C156.696 155.785 159.176 155.124 161.821 155.124ZM236.343 156.86V159.464C234.772 159.795 233.284 160.663 231.879 162.068C230.556 163.473 229.275 165.953 228.035 169.508L209.063 221.34C208.071 221.257 207.079 221.216 206.087 221.216C205.095 221.216 204.062 221.257 202.987 221.34L180.667 166.408C179.427 163.267 178.146 161.324 176.823 160.58C175.5 159.836 174.384 159.464 173.475 159.464V156.86C175.79 157.025 178.187 157.191 180.667 157.356C183.147 157.439 185.875 157.48 188.851 157.48C191.414 157.48 194.1 157.439 196.911 157.356C199.804 157.191 202.491 157.025 204.971 156.86V159.464C203.152 159.464 201.499 159.588 200.011 159.836C198.606 160.084 197.655 160.745 197.159 161.82C196.663 162.812 196.87 164.589 197.779 167.152L212.659 205.716L211.543 207.08L222.827 176.452C224.232 172.567 224.811 169.425 224.563 167.028C224.315 164.631 223.406 162.812 221.835 161.572C220.347 160.332 218.198 159.629 215.387 159.464V156.86C216.792 156.943 218.115 157.025 219.355 157.108C220.678 157.191 221.959 157.273 223.199 157.356C224.522 157.356 225.762 157.356 226.919 157.356C228.655 157.356 230.35 157.315 232.003 157.232C233.739 157.149 235.186 157.025 236.343 156.86ZM255.064 125.24C258.04 125.24 260.479 126.067 262.38 127.72C264.281 129.373 265.232 131.564 265.232 134.292C265.232 137.02 264.281 139.211 262.38 140.864C260.479 142.517 258.04 143.344 255.064 143.344C252.088 143.344 249.649 142.517 247.748 140.864C245.847 139.211 244.896 137.02 244.896 134.292C244.896 131.564 245.847 129.373 247.748 127.72C249.649 126.067 252.088 125.24 255.064 125.24ZM263.744 155.496V209.436C263.744 212.908 264.364 215.264 265.604 216.504C266.927 217.744 269.117 218.364 272.176 218.364V220.968C270.688 220.885 268.415 220.803 265.356 220.72C262.297 220.555 259.197 220.472 256.056 220.472C252.997 220.472 249.897 220.555 246.756 220.72C243.615 220.803 241.259 220.885 239.688 220.968V218.364C242.747 218.364 244.896 217.744 246.136 216.504C247.459 215.264 248.12 212.908 248.12 209.436V170.5C248.12 166.697 247.5 163.928 246.26 162.192C245.103 160.373 242.912 159.464 239.688 159.464V156.86C242.333 157.108 244.896 157.232 247.376 157.232C250.435 157.232 253.328 157.108 256.056 156.86C258.867 156.529 261.429 156.075 263.744 155.496ZM309.577 155.124C312.635 155.124 315.446 155.496 318.009 156.24C320.654 156.901 322.927 157.852 324.829 159.092C326.813 160.332 328.383 161.903 329.541 163.804C330.698 165.623 331.277 167.648 331.277 169.88C331.277 172.608 330.45 174.799 328.797 176.452C327.143 178.105 325.077 178.932 322.597 178.932C320.034 178.932 317.926 178.188 316.273 176.7C314.702 175.212 313.917 173.228 313.917 170.748C313.917 168.351 314.619 166.367 316.025 164.796C317.43 163.225 319.125 162.192 321.109 161.696C320.365 160.621 319.207 159.753 317.637 159.092C316.066 158.348 314.33 157.976 312.429 157.976C309.949 157.976 307.717 158.637 305.733 159.96C303.749 161.2 302.013 163.101 300.525 165.664C299.119 168.144 298.003 171.244 297.177 174.964C296.433 178.601 296.061 182.817 296.061 187.612C296.061 194.308 296.846 199.599 298.417 203.484C300.07 207.369 302.178 210.139 304.741 211.792C307.303 213.363 310.031 214.148 312.925 214.148C314.661 214.148 316.521 213.817 318.505 213.156C320.489 212.495 322.431 211.379 324.333 209.808C326.317 208.237 328.094 206.005 329.665 203.112L332.021 203.98C331.111 206.873 329.623 209.767 327.557 212.66C325.573 215.553 322.969 217.951 319.745 219.852C316.521 221.753 312.594 222.704 307.965 222.704C302.674 222.704 297.879 221.505 293.581 219.108C289.282 216.628 285.851 212.908 283.289 207.948C280.809 202.988 279.569 196.829 279.569 189.472C279.569 182.197 280.85 176.039 283.413 170.996C285.975 165.871 289.53 161.944 294.077 159.216C298.706 156.488 303.873 155.124 309.577 155.124ZM370.233 155.124C377.508 155.124 383.212 157.315 387.345 161.696C391.478 166.077 393.545 173.063 393.545 182.652H351.757L351.633 180.296H379.161C379.326 176.245 379.078 172.525 378.417 169.136C377.756 165.664 376.681 162.895 375.193 160.828C373.788 158.761 371.928 157.728 369.613 157.728C366.472 157.728 363.744 159.588 361.429 163.308C359.114 166.945 357.668 172.939 357.089 181.288L357.585 182.032C357.42 183.107 357.296 184.264 357.213 185.504C357.213 186.744 357.213 187.984 357.213 189.224C357.213 194.928 358.04 199.64 359.693 203.36C361.346 207.08 363.496 209.808 366.141 211.544C368.786 213.28 371.514 214.148 374.325 214.148C376.226 214.148 378.169 213.859 380.153 213.28C382.137 212.701 384.08 211.627 385.981 210.056C387.882 208.485 389.618 206.253 391.189 203.36L393.545 204.352C392.636 207.245 391.106 210.139 388.957 213.032C386.89 215.843 384.204 218.157 380.897 219.976C377.59 221.795 373.705 222.704 369.241 222.704C363.62 222.704 358.66 221.464 354.361 218.984C350.062 216.504 346.714 212.825 344.317 207.948C341.92 202.988 340.721 196.953 340.721 189.844C340.721 182.321 341.961 175.997 344.441 170.872C347.004 165.747 350.517 161.861 354.981 159.216C359.445 156.488 364.529 155.124 370.233 155.124Z" fill="#5C1F2B"/>
</svg>
